<?xml version="1.0" encoding="utf-8"?>
<!-- Generator: Adobe Illustrator 28.0.0, SVG Export Plug-In . SVG Version: 6.00 Build 0)  -->
<svg version="1.1" id="Слой_1" xmlns="http://www.w3.org/2000/svg" xmlns:xlink="http://www.w3.org/1999/xlink" x="0px" y="0px"
	 viewBox="0 0 1000 149.5513916" enable-background="new 0 0 1000 149.5513916" xml:space="preserve">
<path fill="#FF0015" d="M446.4046021,2.5245426H274.0480957V36.709095h62.959137v110.3179474h46.2298279V36.709095h63.1516418
	V2.5245426H446.4046021z M827.6621704,2.5245426V36.709095h62.9591675v110.3179474h46.2279053V36.709095H1000V2.5245426H827.6463623
	H827.6621704z M227.8023834,57.9057541c-8.7982941-1.3337631-18.9648438-2.1276093-30.5940247-2.3658409l-24.5948639-0.3810349
	c-30.0958862-0.381031-33.8436127-6.4146042-33.8436127-12.4321899c0-6.0175934,2.5570526-12.4321957,37.9773407-12.4321957
	h3.1523895c38.1717529,0,41.5166626,11.6542339,42.3054657,17.2907887h47.6130676v-1.9371376
	c0-16.2269402-8.7665405-33.6605377-41.9989319-41.4564476C216.526474,1.5401316,202.4037781,0,184.8221436,0h-13.5759583
	c-13.3834229,0-24.5789642,0.9209023-33.9725952,2.5404215V0h-11.8067627C68.5884781,0,50.7174911,16.4809628,46.7283478,34.7402763
	V2.7150788C10.2464523,9.3360434,1.9624292,27.0078888,1.9624292,44.0921326v1.7465744
	c0,18.3545456,11.0990295,33.8669891,44.7659187,39.8211212V54.6190567
	c4.2143784,18.3386612,23.0826721,32.2156448,70.4701004,33.5494156l20.0751419,0.4604721v-2.8262177
	c7.4478149,1.2702103,15.9732056,2.0799408,25.7042084,2.3498535l25.1902008,0.5874939
	c33.8436279,0.7779541,38.3642731,6.2084274,38.3642731,14.5599899c0,7.7636948-4.3271942,15.3376694-42.9008179,15.3376694
	h-2.7505035c-37.7679901,0-42.8998718-14.3694305-43.4783783-22.911644h-1.078537v22.911644h-1.2056274
	c-37.7689285,0-42.9003296-14.3694305-43.4794083-22.911644H0v2.1439667c0,15.1629028,5.6138339,38.9633331,46.7283478,48.0139771
	v-30.9930954c6.4503098,16.9414291,26.1228256,34.6604538,82.6628571,34.6604538h7.8665009v-3.4458618
	c10.2945862,2.1757507,22.7770538,3.4458618,37.9128571,3.4458618h13.576889c15.6348724,0,28.487442-1.1112366,39.0549316-3.0804291
	c39.1521454-7.3038788,46.7289276-26.4677811,46.7289276-45.2830963v-2.7149963
	c0-22.6730423-13.8497925-35.5498276-46.7289276-40.5513191V57.9057541z M136.3081512,55.3017807l-9.4740067-0.1429024
	c-30.0958939-0.381031-33.8439026-6.4146042-33.8439026-12.4321899c0-6.0175934,2.5573349-12.4321957,37.977623-12.4321957
	h3.1533356c0.7551575,0,1.4794617,0,2.1869507,0.0158863V55.3017807z M788.7520752,76.8635864v-4.7791519
	c15.763855,0,29.065979-11.5271378,29.065979-30.7073059v-1.3655396c0-20.7837543-14.7498169-37.4870453-63.5534668-37.4870453
	H636.2128296v144.486618h45.843811V95.7419739h59.8057861c22.6322021,0,30.4987183,7.7646332,30.4987183,25.435997v25.8331833
	h46.036377v-37.8838806c0-17.6403275-14.6862793-32.2636871-29.6622314-32.2636871H788.7520752z M770.0125122,49.5223274
	c0,7.9547272-5.5019531,14.1786728-18.4984741,14.1786728h-69.4573975V35.3435555h69.4573975
	c13.3834229,0,18.4984741,6.414608,18.4984741,13.988205V49.5223274z M491.6045227,2.5245426l-73.9771118,144.486618h46.6317444
	l13.1899719-26.4201202h88.7436829l13.7694092,26.4201202h49.3822632L551.024292,2.5245426H491.6045227z M493.7765198,87.9779053
	l25.688324-51.2688103h2.975769l26.8145142,51.2688103H493.7765198z"/>
</svg>
